# xmcd CD database file
#
# Track frame offsets:
#	150
#	16819
#	40094
#	67921
#	85921
#	105706
#	123572
#	140579
#	163402
#	188357
#	208211
#	226991
#	252728
#	272287
#	295743
#
# Disc length: 4125 seconds
#
# Revision: 0
# Processed by: cddbd v1.5.1PL0 Copyright (c) Steve Scherf et al.
# Submitted via: CDex 1.51
#
DISCID=d3101b0f
DTITLE=Blues Festival Luzern 2002 - Part I
DYEAR=2002
DGENRE=Blues
TTITLE0=01 Carl Weathersby - Hobo blues
TTITLE1=02 Cephas and Wiggins - Railroad Bill
TTITLE2=03 Bob Stroger - Stranded in St. Loius
TTITLE3=04 Jimmy Morello - You can't do this to me
TTITLE4=05 Billy Branch - Tribute to the Boogie Man
TTITLE5=06 Charles Walker - They all look better in green
TTITLE6=07 Henry Gray - Out on the Road
TTITLE7=08 Lisa Bourne - Soul Searching
TTITLE8=09 Marty Sammon - I don't believe you baby
TTITLE9=10 Otis Clay - Truth is
TTITLE10=11 Arthur Adams - Jumpin' the gun
TTITLE11=12 Billy Flyyn - Elmo done Moved
TTITLE12=13 Henry Townsend - You Should' ve told me
TTITLE13=14 Wallace Coleman - bring it on home
TTITLE14=15 Jimmy Church - Living in the Shadow of another mans's love
EXTD=YEAR: 2002
EXTT0=
EXTT1=
EXTT2=
EXTT3=
EXTT4=
EXTT5=
EXTT6=
EXTT7=
EXTT8=
EXTT9=
EXTT10=
EXTT11=
EXTT12=
EXTT13=
EXTT14=
PLAYORDER=
